# xmcd CD database file
#
# Track frame offsets:
#	150
#	17020
#	33754
#	49181
#	70511
#	89847
#	104707
#	118424
#	139565
#	155123
#	168282
#	189957
#
# Disc length: 2803 seconds
#
# Revision: 0
# Processed by: cddbd v1.5.1PL2 Copyright (c) Steve Scherf et al.
# Submitted via: CDex 1.51
#
DISCID=a20af10c
DTITLE=Mark Middler - Roots Revival
DYEAR=1900
DGENRE=Country
TTITLE0=King Bee
TTITLE1=Fix this Day
TTITLE2=Boat load of blues
TTITLE3=Lazy River
TTITLE4=Brother to the Blues
TTITLE5=Sweet thing solong
TTITLE6=Neon Blond
TTITLE7=Do ya do ya
TTITLE8=Ain`t no Sunshine
TTITLE9=West coast blues
TTITLE10=Nobody Knows
TTITLE11=That`s my Baby
EXTD=
EXTT0=
EXTT1=
EXTT2=
EXTT3=
EXTT4=
EXTT5=
EXTT6=
EXTT7=
EXTT8=
EXTT9=
EXTT10=
EXTT11=
PLAYORDER=
